# xmcd
#
# Track frame offsets: 
#        150
#        25635
#        40395
#        56678
#        70760
#        80938
#        98728
#        116608
#        137358
#        151010
#        162100
#        184640
#        205843
#        227358
#        242090
#
# Disc length: 3652 seconds
#
# Revision: 7
# Processed by: cddbd v1.5.1PL0 Copyright (c) Steve Scherf et al.
# Submitted via: ExactAudioCopy v0.90b4
#
DISCID=b60e420f
DTITLE=Michel Jonasz - Tous les succès de Michel Jonasz CD2÷2
DYEAR=1989
DGENRE=Chanson
TTITLE0=Joueurs de blues
TTITLE1=Les Fourmis rouges
TTITLE2=C'est la nuit
TTITLE3=Rock à gogo
TTITLE4=J't'aimais tellement fort que j't'aime encore
TTITLE5=Lucille
TTITLE6=Une seule journée passée sans elle
TTITLE7=Lord Have Mercy
TTITLE8=La Boîte de jazz
TTITLE9=Les Lignes téléphoniques
TTITLE10=Unis vers l'uni
TTITLE11=Ray Charles
TTITLE12=La FM qui s'est spécialisée funky
TTITLE13=La Bossa
TTITLE14=Y'a rien qui dure toujours (live)
EXTD=YEAR: 1989
EXTT0=
EXTT1=
EXTT2=
EXTT3=
EXTT4=
EXTT5=
EXTT6=
EXTT7=
EXTT8=
EXTT9=
EXTT10=
EXTT11=
EXTT12=
EXTT13=
EXTT14=
PLAYORDER=
